<svg width="58" height="58" viewBox="0 0 58 58" fill="none" xmlns="http://www.w3.org/2000/svg">
<g clip-path="url(#clip0_1_3)">
<path fill-rule="evenodd" clip-rule="evenodd" d="M29.0483 0C45.0322 0.0265833 58 13.0089 58 29C58 45.0056 45.008 58 29 58C12.9944 58 0 45.0056 0 29C0 13.0089 12.9703 0.0265833 28.9541 0H29.0483ZM37.9755 38.6667H20.0269C21.5712 48.9762 25.4451 55.5833 29 55.5833C32.5573 55.5833 36.4313 48.9762 37.9755 38.6667M53.7684 38.6667H40.4212C39.3917 45.8804 37.2288 51.7215 34.4158 55.0299C43.2825 53.1933 50.5373 46.9341 53.7684 38.6667ZM17.5813 38.6667H4.23158C7.46508 46.9341 14.7199 53.1933 23.5867 55.0299C20.7737 51.7215 18.6108 45.8804 17.5813 38.6667ZM17.284 21.75H3.422C2.62208 24.5678 1.63125 29.9401 3.422 36.25H17.284C16.8297 31.8662 16.7644 26.7646 17.284 21.75ZM38.2873 21.75H19.7152C19.2439 26.1 19.1714 31.2403 19.7152 36.25H38.2873C38.7609 31.8734 38.8286 26.7525 38.2873 21.75ZM54.5804 21.75H40.7184C40.8683 23.1807 41.4628 29.0459 40.7184 36.25H54.5804C56.3712 29.9377 55.3803 24.5654 54.5804 21.75ZM23.5867 2.97008C14.7199 4.80675 7.46508 11.0659 4.23158 19.3333H17.5813C18.6108 12.1196 20.7737 6.27608 23.5867 2.97008ZM37.9755 19.3333C36.4313 9.02383 32.5573 2.41667 29 2.41667C25.4451 2.41667 21.5712 9.02383 20.0269 19.3333H37.9755ZM34.4158 2.97008C37.2288 6.27608 39.3917 12.1196 40.4212 19.3333H53.7684C50.5373 11.0659 43.2825 4.80675 34.4158 2.97008" fill="url(#paint0_linear_1_3)"/>
</g>
<defs>
<linearGradient id="paint0_linear_1_3" x1="29" y1="0" x2="29" y2="58" gradientUnits="userSpaceOnUse">
<stop stop-color="#7CE873"/>
<stop offset="0.494792" stop-color="#BC5D8B"/>
<stop offset="1" stop-color="#6974D6"/>
</linearGradient>
<clipPath id="clip0_1_3">
<rect width="58" height="58" fill="white"/>
</clipPath>
</defs>
</svg>
